v -1.458962 1.846434 -1.212063
v -1.448206 1.859896 -1.113559
v -1.402952 1.927473 -1.229255
v -1.392196 1.940935 -1.13075
v -1.320811 1.870451 -1.230432
v -1.310054 1.883913 -1.131927
v -1.376821 1.789412 -1.21324
v -1.366065 1.802874 -1.114736
v -1.402952 1.927473 -1.229255
v -1.392196 1.940935 -1.13075
v -1.320811 1.870451 -1.230432
v -1.310054 1.883913 -1.131927
v -1.376821 1.789412 -1.21324
v -1.458962 1.846434 -1.212063
v -1.448206 1.859896 -1.113559
v -1.366065 1.802874 -1.114736
v -1.448206 1.859896 -1.113559
v -1.392196 1.940935 -1.13075
v -1.310054 1.883913 -1.131927
v -1.366065 1.802874 -1.114736
v -1.376821 1.789412 -1.21324
v -1.320811 1.870451 -1.230432
v -1.402952 1.927473 -1.229255
v -1.458962 1.846434 -1.212063

vn 0.8214103 -0.5702164 -0.01176917
vn 0.8214103 -0.5702164 -0.01176917
vn 0.8214103 -0.5702164 -0.01176917
vn 0.8214103 -0.5702164 -0.01176917
vn -0.5601025 -0.8103893 0.171914
vn -0.5601025 -0.8103893 0.171914
vn -0.8214103 0.5702164 0.01176917
vn -0.8214103 0.5702164 0.01176917
vn -0.5601025 -0.8103893 0.171914
vn -0.5601025 -0.8103893 0.171914
vn -0.8214103 0.5702164 0.01176917
vn -0.8214103 0.5702164 0.01176917
vn 0.5601025 0.8103893 -0.171914
vn 0.5601025 0.8103893 -0.171914
vn 0.5601025 0.8103893 -0.171914
vn 0.5601025 0.8103893 -0.171914
vn -0.1075658 -0.13462 -0.9850417
vn -0.1075658 -0.13462 -0.9850417
vn -0.1075658 -0.13462 -0.9850417
vn -0.1075658 -0.13462 -0.9850417
vn 0.1075658 0.13462 0.9850417
vn 0.1075658 0.13462 0.9850417
vn 0.1075658 0.13462 0.9850417
vn 0.1075658 0.13462 0.9850417

vt 0 0
vt 1 0
vt 0 1
vt 1 1
vt 0 1
vt 1 1
vt 0 1
vt 1 1
vt 0 0
vt 1 0
vt 0 0
vt 1 0
vt 0 0
vt 0 1
vt 1 1
vt 1 0
vt 0 0
vt 0 1
vt 1 1
vt 1 0
vt 0 0
vt 0 1
vt 1 1
vt 1 0

usemtl Cube
usemap Cube
f 1/1/1 3/3/3 4/4/4
f 1/1/1 4/4/4 2/2/2
f 9/9/9 5/5/5 6/6/6
f 9/9/9 6/6/6 10/10/10
f 11/11/11 7/7/7 8/8/8
f 11/11/11 8/8/8 12/12/12
f 13/13/13 14/14/14 15/15/15
f 13/13/13 15/15/15 16/16/16
f 17/17/17 18/18/18 19/19/19
f 17/17/17 19/19/19 20/20/20
f 21/21/21 22/22/22 23/23/23
f 21/21/21 23/23/23 24/24/24
