v -0.06719369 1.698741 0.1948498
v -0.01314708 1.616485 0.2125413
v 0.06087933 1.652984 0.156094
v 0.006832698 1.73524 0.1384025
v -0.06719369 1.698741 0.1948498
v 0.006832698 1.73524 0.1384025
v -0.04313101 1.632259 0.09485459
v 0.006832698 1.73524 0.1384025
v 0.06087933 1.652984 0.156094
v -0.04313101 1.632259 0.09485459
v 0.06087933 1.652984 0.156094
v -0.01314708 1.616485 0.2125413
v -0.04313101 1.632259 0.09485459
v -0.04313101 1.632259 0.09485459
v -0.01314708 1.616485 0.2125413
v -0.06719369 1.698741 0.1948498

vn 0.3997708 0.4360774 0.8062382
vn 0.3997708 0.4360774 0.8062382
vn 0.3997708 0.4360774 0.8062382
vn 0.3997708 0.4360774 0.8062382
vn -0.6621947 0.5406713 -0.5188187
vn -0.6621947 0.5406713 -0.5188187
vn -0.6621947 0.5406713 -0.5188187
vn 0.4833829 0.1314638 -0.8654817
vn 0.4833829 0.1314638 -0.8654817
vn 0.4833829 0.1314638 -0.8654817
vn 0.3046052 -0.9307364 -0.2023498
vn 0.3046052 -0.9307364 -0.2023498
vn 0.3046052 -0.9307364 -0.2023498
vn -0.8409487 -0.521503 0.1443601
vn -0.8409487 -0.521503 0.1443601
vn -0.8409487 -0.521503 0.1443601


usemtl Pyramid
usemap Pyramid
f 1/1/1 2/2/2 3/3/3
f 1/1/1 3/3/3 4/4/4
f 5/5/5 6/6/6 7/7/7
f 8/8/8 9/9/9 10/10/10
f 11/11/11 12/12/12 13/13/13
f 14/14/14 15/15/15 16/16/16
